<svg xmlns="http://www.w3.org/2000/svg" width="76.292" height="19.999" viewBox="0 0 103 27">
  <defs>
    <style>
      .cls-1 {
        fill: none;
        stroke: #289d44;
        stroke-width: 1px;
      }

      .cls-1, .cls-2 {
        fill-rule: evenodd;
      }

      .cls-2 {
        fill: #289d44;
      }
    </style>
  </defs>
  <path id="Rounded_Rectangle_1" data-name="Rounded Rectangle 1" class="cls-1" d="M10.5,3.5H92.5a10,10,0,1,1,0,20H10.5A10,10,0,1,1,10.5,3.5Z"/>
  <path id="Latest_release" data-name="Latest release" class="cls-2" d="M9.074,18.267h6.4v-1.2H10.434V8.225H9.074V18.267Zm8.565-1.946A1.088,1.088,0,0,1,18.21,15.3a2.873,2.873,0,0,1,1.005-.28l0.744-.1a4.868,4.868,0,0,0,.7-0.137,2.1,2.1,0,0,0,.58-0.24v0.99a1.69,1.69,0,0,1-1.025,1.631,2.81,2.81,0,0,1-1.258.3,1.446,1.446,0,0,1-.923-0.307,1.01,1.01,0,0,1-.39-0.839h0Zm1.019-2.239a3.027,3.027,0,0,0-1.668.69,1.99,1.99,0,0,0-.636,1.577A2.051,2.051,0,0,0,17,17.9a2.309,2.309,0,0,0,1.665.618,3.343,3.343,0,0,0,1.552-.362A3.13,3.13,0,0,0,21.3,17.3a1.741,1.741,0,0,0,.212.677,1.012,1.012,0,0,0,.923.451,3.193,3.193,0,0,0,.41-0.02,3.448,3.448,0,0,0,.438-0.1V17.392q-0.116.021-.219,0.031t-0.185.01a0.379,0.379,0,0,1-.331-0.116,0.539,0.539,0,0,1-.079-0.308V12.791a1.671,1.671,0,0,0-.8-1.531,3.977,3.977,0,0,0-2.1-.492,3.592,3.592,0,0,0-1.956.531,2.123,2.123,0,0,0-.877,1.889h1.148a1.726,1.726,0,0,1,.293-0.859,1.62,1.62,0,0,1,1.364-.522,2.387,2.387,0,0,1,1.279.285,1,1,0,0,1,.447.916,1.091,1.091,0,0,1-.082.473,0.668,0.668,0,0,1-.567.355Zm6.07-3.136H23.737v1h0.991V16.8a1.959,1.959,0,0,0,.308,1.145,1.336,1.336,0,0,0,1.169.441,4.2,4.2,0,0,0,.5-0.027,2.747,2.747,0,0,0,.441-0.089V17.289Q27,17.308,26.9,17.312t-0.191,0a1.1,1.1,0,0,1-.479-0.075,0.517,0.517,0,0,1-.26-0.513V11.951h1.169v-1H25.972V8.9H24.728v2.044Zm6.664-.164a3.129,3.129,0,0,0-2.487,1.1,4.225,4.225,0,0,0-.951,2.864,3.884,3.884,0,0,0,.944,2.786,3.055,3.055,0,0,0,2.3.995,4.16,4.16,0,0,0,1-.109,2.841,2.841,0,0,0,1.377-.738,3.235,3.235,0,0,0,.6-0.81,2.549,2.549,0,0,0,.318-0.9h-1.21a2.177,2.177,0,0,1-.452.858,1.944,1.944,0,0,1-1.526.639,1.741,1.741,0,0,1-1.512-.675A3.164,3.164,0,0,1,29.274,15H34.6a8.5,8.5,0,0,0-.109-1.613A3.281,3.281,0,0,0,34,12.094a2.776,2.776,0,0,0-1.108-.947,3.3,3.3,0,0,0-1.5-.366h0ZM29.3,14.022a2.322,2.322,0,0,1,.6-1.555,1.849,1.849,0,0,1,1.41-.612,1.768,1.768,0,0,1,1.674.889,3.21,3.21,0,0,1,.346,1.278H29.3Zm6.405,1.948a2.787,2.787,0,0,0,.737,1.835,3.093,3.093,0,0,0,2.343.742,3.223,3.223,0,0,0,2.287-.711,2.248,2.248,0,0,0,.751-1.689,1.647,1.647,0,0,0-.718-1.483,6.493,6.493,0,0,0-1.811-.622l-0.829-.2a2.934,2.934,0,0,1-.822-0.3,0.861,0.861,0,0,1-.483-0.763,0.826,0.826,0,0,1,.367-0.7,1.836,1.836,0,0,1,1.081-.266,1.954,1.954,0,0,1,1.5.483,1.394,1.394,0,0,1,.3.755h1.162a2.089,2.089,0,0,0-.451-1.326,2.85,2.85,0,0,0-2.418-.971,3.052,3.052,0,0,0-2.04.643,2.1,2.1,0,0,0-.759,1.682,1.548,1.548,0,0,0,.806,1.381,4.892,4.892,0,0,0,1.4.519l0.993,0.246a5.1,5.1,0,0,1,1.07.349,0.784,0.784,0,0,1,.424.718,0.984,0.984,0,0,1-.53.919,2.468,2.468,0,0,1-1.228.3,2,2,0,0,1-1.647-.595,1.766,1.766,0,0,1-.314-0.943H35.707Zm7.7-5.024H42.413v1H43.4V16.8a1.959,1.959,0,0,0,.308,1.145,1.336,1.336,0,0,0,1.169.441,4.2,4.2,0,0,0,.5-0.027,2.748,2.748,0,0,0,.441-0.089V17.289c-0.091.012-.171,0.02-0.239,0.023s-0.132,0-.191,0a1.1,1.1,0,0,1-.478-0.075,0.517,0.517,0,0,1-.26-0.513V11.951h1.169v-1H44.648V8.9H43.4v2.044Zm7.567,7.321H52.2V14.056a2.088,2.088,0,0,1,.5-1.377,1.756,1.756,0,0,1,1.429-.6q0.109,0,.2.007a1.87,1.87,0,0,1,.2.027v-1.3l-0.28-.027c-0.055,0-.093-0.007-0.116-0.007a1.826,1.826,0,0,0-1.292.53,2.794,2.794,0,0,0-.7.9V10.946H50.971v7.321Zm7.649-7.485a3.129,3.129,0,0,0-2.487,1.1,4.225,4.225,0,0,0-.951,2.864,3.885,3.885,0,0,0,.944,2.786,3.055,3.055,0,0,0,2.3.995,4.161,4.161,0,0,0,1-.109,2.841,2.841,0,0,0,1.377-.738,3.235,3.235,0,0,0,.6-0.81,2.549,2.549,0,0,0,.318-0.9h-1.21a2.175,2.175,0,0,1-.452.858,1.944,1.944,0,0,1-1.526.639,1.741,1.741,0,0,1-1.512-.675A3.165,3.165,0,0,1,56.5,15h5.325a8.511,8.511,0,0,0-.109-1.613,3.28,3.28,0,0,0-.489-1.292,2.775,2.775,0,0,0-1.107-.947,3.3,3.3,0,0,0-1.5-.366h0Zm-2.091,3.24a2.321,2.321,0,0,1,.6-1.555,1.849,1.849,0,0,1,1.41-.612,1.768,1.768,0,0,1,1.674.889,3.212,3.212,0,0,1,.346,1.278H56.529Zm6.891,4.245H64.65V8.225H63.42V18.267Zm6.1-7.485a3.129,3.129,0,0,0-2.487,1.1,4.225,4.225,0,0,0-.951,2.864,3.884,3.884,0,0,0,.944,2.786,3.055,3.055,0,0,0,2.3.995,4.161,4.161,0,0,0,1-.109,2.841,2.841,0,0,0,1.377-.738,3.235,3.235,0,0,0,.6-0.81,2.549,2.549,0,0,0,.318-0.9h-1.21a2.176,2.176,0,0,1-.452.858,1.944,1.944,0,0,1-1.526.639,1.741,1.741,0,0,1-1.513-.675A3.165,3.165,0,0,1,67.4,15h5.325a8.511,8.511,0,0,0-.109-1.613,3.28,3.28,0,0,0-.489-1.292,2.775,2.775,0,0,0-1.107-.947,3.3,3.3,0,0,0-1.5-.366h0Zm-2.091,3.24a2.321,2.321,0,0,1,.6-1.555,1.849,1.849,0,0,1,1.41-.612,1.768,1.768,0,0,1,1.674.889,3.212,3.212,0,0,1,.346,1.278H67.425Zm7.8,2.3A1.087,1.087,0,0,1,75.8,15.3a2.873,2.873,0,0,1,1.005-.28l0.744-.1a4.872,4.872,0,0,0,.7-0.137,2.1,2.1,0,0,0,.58-0.24v0.99A1.69,1.69,0,0,1,77.8,17.167a2.81,2.81,0,0,1-1.258.3,1.446,1.446,0,0,1-.923-0.307,1.01,1.01,0,0,1-.39-0.839h0Zm1.019-2.239a3.027,3.027,0,0,0-1.668.69,1.99,1.99,0,0,0-.636,1.577,2.051,2.051,0,0,0,.646,1.546,2.31,2.31,0,0,0,1.665.618,3.343,3.343,0,0,0,1.552-.362,3.132,3.132,0,0,0,1.08-.854,1.739,1.739,0,0,0,.212.677,1.012,1.012,0,0,0,.923.451,3.193,3.193,0,0,0,.41-0.02,3.448,3.448,0,0,0,.438-0.1V17.392q-0.116.021-.219,0.031t-0.185.01a0.38,0.38,0,0,1-.332-0.116,0.539,0.539,0,0,1-.079-0.308V12.791a1.671,1.671,0,0,0-.8-1.531,3.977,3.977,0,0,0-2.1-.492A3.591,3.591,0,0,0,75.2,11.3a2.123,2.123,0,0,0-.877,1.889h1.148a1.726,1.726,0,0,1,.293-0.859,1.62,1.62,0,0,1,1.364-.522,2.386,2.386,0,0,1,1.279.285,1,1,0,0,1,.447.916,1.091,1.091,0,0,1-.082.473,0.668,0.668,0,0,1-.567.355Zm5.373,1.888a2.786,2.786,0,0,0,.737,1.835,3.093,3.093,0,0,0,2.343.742,3.222,3.222,0,0,0,2.287-.711,2.247,2.247,0,0,0,.751-1.689,1.647,1.647,0,0,0-.718-1.483,6.492,6.492,0,0,0-1.811-.622l-0.829-.2a2.932,2.932,0,0,1-.822-0.3,0.861,0.861,0,0,1-.483-0.763,0.826,0.826,0,0,1,.367-0.7,1.836,1.836,0,0,1,1.081-.266,1.954,1.954,0,0,1,1.5.483,1.394,1.394,0,0,1,.3.755h1.162a2.089,2.089,0,0,0-.45-1.326,2.85,2.85,0,0,0-2.418-.971,3.053,3.053,0,0,0-2.04.643,2.1,2.1,0,0,0-.759,1.682,1.548,1.548,0,0,0,.806,1.381,4.894,4.894,0,0,0,1.4.519l0.993,0.246a5.1,5.1,0,0,1,1.07.349,0.784,0.784,0,0,1,.424.718,0.984,0.984,0,0,1-.53.919,2.467,2.467,0,0,1-1.228.3,2,2,0,0,1-1.647-.595A1.764,1.764,0,0,1,82.8,15.97H81.617Zm10.472-5.189a3.129,3.129,0,0,0-2.487,1.1,4.225,4.225,0,0,0-.951,2.864,3.884,3.884,0,0,0,.944,2.786,3.055,3.055,0,0,0,2.3.995,4.16,4.16,0,0,0,1-.109,2.84,2.84,0,0,0,1.377-.738,3.233,3.233,0,0,0,.6-0.81,2.549,2.549,0,0,0,.318-0.9h-1.21a2.177,2.177,0,0,1-.452.858,1.944,1.944,0,0,1-1.526.639,1.741,1.741,0,0,1-1.512-.675A3.164,3.164,0,0,1,89.97,15H95.3a8.5,8.5,0,0,0-.109-1.613,3.28,3.28,0,0,0-.489-1.292,2.775,2.775,0,0,0-1.107-.947,3.3,3.3,0,0,0-1.5-.366h0ZM90,14.022a2.322,2.322,0,0,1,.6-1.555,1.849,1.849,0,0,1,1.41-.612,1.769,1.769,0,0,1,1.674.889,3.21,3.21,0,0,1,.346,1.278H90Z"/>
</svg>
